<svg xmlns="http://www.w3.org/2000/svg" viewBox="0 0 50 49.99"><defs><style>.cls-1{fill:#232f3e;}</style></defs><title>product-icon_AWS_AppSync</title><g id="ICONS_-_EDIT" data-name="ICONS - EDIT"><path class="cls-1" d="M25.12,47a22.59,22.59,0,0,1-10.91-2.81l1-1.75a20.69,20.69,0,0,0,27.55-29l-1,5-2-.39,1.45-7.33A1,1,0,0,1,42.39,10l7.33,1.45-.39,2-4.9-1A22.72,22.72,0,0,1,25.12,47ZM7.78,38.31l-.25,0L.28,36.46l.49-1.94,4.67,1.17A22.68,22.68,0,0,1,35.92,4.38L35,6.13A20.69,20.69,0,0,0,7.33,35l1.3-5.15,1.94.48L8.75,37.55A1,1,0,0,1,7.78,38.31ZM33,34a4,4,0,0,1-3.88-3H20.9A4,4,0,1,1,17,26a4.18,4.18,0,0,1,1.07.14l4.18-7.24a4,4,0,1,1,5.5,0L32,26.14A4.18,4.18,0,0,1,33,26a4,4,0,0,1,0,8Zm0-6a2,2,0,1,0,2,2A2,2,0,0,0,33,28ZM17,28a2,2,0,1,0,2,2A2,2,0,0,0,17,28Zm3.87,1h8.25a4.09,4.09,0,0,1,1.08-1.87L26,19.87a4,4,0,0,1-2,0l-4.2,7.28A3.9,3.9,0,0,1,20.9,29ZM25,14a2,2,0,1,0,2,2A2,2,0,0,0,25,14Z"/></g></svg>