<svg xmlns="http://www.w3.org/2000/svg" viewBox="0 0 50 49.99"><defs><style>.cls-1{fill:#232f3e;}</style></defs><title>product-icon_Amazon_Neptune</title><g id="ICONS_-_EDIT" data-name="ICONS - EDIT"><path class="cls-1" d="M32,19.92a4.51,4.51,0,0,1,2,1.88V7.22C34,2.53,25.24,0,17,0S0,2.53,0,7.22V42.78C0,47.47,8.76,50,17,50s17-2.53,17-7.22V38H32v4.78C32,45.25,25.84,48,17,48S2,45.25,2,42.78V35.36c3,2.44,9.17,3.73,15,3.73a39,39,0,0,0,5.09-.33,5.24,5.24,0,0,1-.9-1.89,39.6,39.6,0,0,1-4.19.22c-8.81,0-14.95-2.75-14.95-5.22H2V23.14c3,2.44,9.17,3.73,15,3.73a37.65,37.65,0,0,0,8.91-1A4.49,4.49,0,0,1,25.56,24v-.11a34.91,34.91,0,0,1-8.52,1c-8.81,0-14.95-2.75-14.95-5.22H2v-8.9c3.07,2.42,9.17,3.69,15,3.69s11.93-1.27,15-3.69v8.9A1.24,1.24,0,0,1,32,19.92ZM17,12.44c-8.84,0-15-2.75-15-5.22S8.16,2,17,2,32,4.75,32,7.22,25.84,12.44,17,12.44ZM47.5,38A2.5,2.5,0,0,0,45,40.5a2.33,2.33,0,0,0,.06.53L41.75,43.1a3.88,3.88,0,0,0-1.92-1l-.2-4.45a5.16,5.16,0,0,0,2.22-8.85L45,23.53a3.22,3.22,0,0,0,1,.16,3.5,3.5,0,1,0-3.5-3.5,3.43,3.43,0,0,0,.81,2.23l-3.18,5.35a5,5,0,0,0-1.73-.31,5,5,0,0,0-2.8.84l-3.28-3.36A2.46,2.46,0,0,0,32.5,24,2.5,2.5,0,1,0,30,26.5a2.55,2.55,0,0,0,.88-.16l3.28,3.35a5,5,0,0,0-.93,2.94v0l-3.87.81a3.49,3.49,0,1,0,.64,2,.34.34,0,0,0,0-.1l3.65-.76a5.15,5.15,0,0,0,4,3.09l.2,4.44A4,4,0,1,0,43,46a3.68,3.68,0,0,0-.19-1.2l3.43-2.14A2.45,2.45,0,0,0,47.5,43a2.5,2.5,0,0,0,0-5ZM46,18.69a1.5,1.5,0,1,1-1.5,1.5A1.5,1.5,0,0,1,46,18.69ZM30,24.5a.5.5,0,0,1,0-1,.5.5,0,0,1,0,1ZM26.5,37A1.5,1.5,0,1,1,28,35.5,1.5,1.5,0,0,1,26.5,37Zm8.73-4.37A3.17,3.17,0,1,1,38.4,35.8,3.17,3.17,0,0,1,35.23,32.63ZM39,48a2,2,0,1,1,2-2A2,2,0,0,1,39,48Zm8.5-7a.5.5,0,0,1,0-1,.5.5,0,0,1,0,1Z"/></g></svg>