<?xml version="1.0" encoding="iso-8859-1"?>
<!-- Generator: Adobe Illustrator 19.0.0, SVG Export Plug-In . SVG Version: 6.00 Build 0)  -->
<svg version="1.1" id="Layer_1" xmlns="http://www.w3.org/2000/svg" xmlns:xlink="http://www.w3.org/1999/xlink" x="0px" y="0px"
	 viewBox="0 0 512 512" style="enable-background:new 0 0 512 512;" xml:space="preserve">
<circle style="fill:#386895;" cx="256" cy="256" r="256"/>
<path style="fill:#273B7A;" d="M511.981,257.434L385.184,130.638l-13.391,89.021l-99.152-96.868l-14.493,58.356l-65.205-62.942
	l-5.025,25.466l-26.133-24.773l-7.209,28.71l-24.145-29.934l-0.419,4.508l-4.986,8.457v49.48l27.832,27.832l4.443,18.52
	l-0.857,195.455l89.874,89.874c3.215,0.119,6.439,0.2,9.681,0.2c110.371,0,204.428-69.849,240.381-167.753l2.3-6.546
	C507.171,312.473,511.828,285.487,511.981,257.434z"/>
<path style="fill:#D35933;" d="M341.333,279.704h28.444v128c0,7.854-6.368,14.222-14.222,14.222l0,0
	c-7.854,0-14.222-6.368-14.222-14.222V279.704z"/>
<path style="fill:#D0D1D3;" d="M384.431,284.444h-43.098V113.778h6.034c28.086,0,50.855,22.769,50.855,50.855v106.02
	C398.222,278.269,392.047,284.444,384.431,284.444z"/>
<path style="fill:#FFFFFF;" d="M290.478,170.667c0-21.899-15.436-56.889-34.478-56.889s-34.478,34.99-34.478,56.889
	c0,19.182,11.845,35.181,27.582,38.855v103.367h13.791V209.522C278.633,205.848,290.478,189.849,290.478,170.667z"/>
<path style="fill:#D0D1D3;" d="M256,113.778c-0.193,0-0.383,0.026-0.574,0.033v199.078h7.47V209.522
	c15.738-3.674,27.582-19.673,27.582-38.855C290.478,148.768,275.042,113.778,256,113.778z"/>
<path style="fill:#FF7F4F;" d="M241.778,279.704h28.444v128c0,7.854-6.368,14.222-14.222,14.222l0,0
	c-7.854,0-14.222-6.368-14.222-14.222V279.704z"/>
<path style="fill:#D35933;" d="M255.426,279.704v142.193c0.191,0.007,0.381,0.029,0.574,0.029c7.854,0,14.222-6.368,14.222-14.222
	v-128H255.426z"/>
<path style="fill:#FFFFFF;" d="M187.475,115.502c-3.808,0-6.896,3.088-6.896,6.896v57.334c0,7.361-6.127,13.346-13.658,13.346
	h-3.581v-69.818c0-3.808-3.088-6.896-6.896-6.896s-6.896,3.088-6.896,6.896v69.818h-3.581c-7.532,0-13.658-5.987-13.658-13.346
	v-57.334c0-3.808-3.088-6.896-6.896-6.896s-6.896,3.088-6.896,6.896v57.334c0,14.965,12.314,27.138,27.45,27.138h3.581v106.02
	c0,3.808,3.088,6.896,6.896,6.896s6.896-3.088,6.896-6.896v-106.02h3.581c15.136,0,27.45-12.174,27.45-27.138v-57.334
	C194.37,118.589,191.283,115.502,187.475,115.502z"/>
<path style="fill:#FF7F4F;" d="M142.222,279.704h28.444v128c0,7.854-6.368,14.222-14.222,14.222l0,0
	c-7.854,0-14.222-6.368-14.222-14.222V279.704z"/>
<g>
</g>
<g>
</g>
<g>
</g>
<g>
</g>
<g>
</g>
<g>
</g>
<g>
</g>
<g>
</g>
<g>
</g>
<g>
</g>
<g>
</g>
<g>
</g>
<g>
</g>
<g>
</g>
<g>
</g>
</svg>
