<?xml version="1.0" encoding="utf-8"?>
<!-- Generator: Adobe Illustrator 22.1.0, SVG Export Plug-In . SVG Version: 6.00 Build 0)  -->
<svg version="1.1" xmlns="http://www.w3.org/2000/svg" xmlns:xlink="http://www.w3.org/1999/xlink" x="0px" y="0px"
	 viewBox="0 0 100 125" style="enable-background:new 0 0 100 125;" xml:space="preserve">
<g id="Layer_2">
</g>
<g id="Layer_1">
	<path d="M51.6,18.1c2.5,0,4.7,1.4,5.7,3.5c0.9-0.5,1.9-0.7,2.9-0.7c3.5,0,6.4,2.9,6.4,6.4v1.5c0.7-0.3,1.4-0.4,2.2-0.4
		c3.5,0,6.4,2.9,6.4,6.4v2.8c0.1,1.8,1,35.2-6.7,44.9c-0.4,0.5-1,0.8-1.6,0.8c-0.5,0-0.9-0.2-1.3-0.5c-0.9-0.7-1-2-0.3-3
		c5.7-7.1,6.1-32.8,5.8-42.2l0,0l0,0v-2.8c0-1.2-1-2.2-2.2-2.2s-2.2,1-2.2,2.2v0.3v14.6c0,1.2-0.9,2.1-2.1,2.1
		c-1.2,0-2.1-0.9-2.1-2.1V35.1v-0.3v-7.6c0-1.2-1-2.2-2.2-2.2s-2.2,1-2.2,2.2v6V48c0,1.2-0.9,2.1-2.1,2.1c-1.2,0-2.1-0.9-2.1-2.1
		V33.4v-6v-2.8c0-1.2-1-2.2-2.2-2.2s-2.2,1-2.2,2.2v2.8v7.4v16.7c0,1.2-0.9,2.1-2.1,2.1c-1.2,0-2.1-0.9-2.1-2.1V34.8v-7.4
		c0-1.2-1-2.2-2.2-2.2s-2.2,1-2.2,2.2v34.7c0,1-0.6,1.8-1.6,2c-0.9,0.2-1.9-0.2-2.4-1l-6.3-10.9c-0.3-0.6-0.7-0.9-1.3-1.1
		c-0.5-0.1-1,0-1.4,0.2c-0.7,0.4-0.7,2-0.2,3.7c0.3,0.7,6.1,17,12.5,23.4c0.8,0.8,0.8,2.1,0,3c-0.4,0.4-0.9,0.6-1.5,0.6
		c-0.5,0-1.1-0.2-1.5-0.6C30,74.2,24,57.1,23.7,56.4l0,0c-1.2-3.7-0.4-7,1.9-8.6c1.4-0.9,3.1-1.2,4.7-0.8c1.6,0.4,3,1.5,3.9,3.1
		l2.3,4V27.2c0-3.5,2.9-6.4,6.4-6.4c1.1,0,2.1,0.3,2.9,0.7C46.9,19.6,49.1,18.1,51.6,18.1z M44.8,59.6c-0.8,0.8-0.8,2.2,0,3
		c0.1,0.1,7.3,7.4,6.4,17.3c-0.1,1.2,0.8,2.2,1.9,2.3c0.1,0,0.1,0,0.2,0c1.1,0,2-0.8,2.1-1.9c1.1-11.9-7.3-20.3-7.6-20.6
		C46.9,58.8,45.6,58.8,44.8,59.6z M81.5,35.6c0.1,1.1,1,1.8,2.1,1.8c0.1,0,0.2,0,0.3,0c1.1-0.2,2-1.2,1.8-2.4
		c-0.9-6.7-4.8-10.1-4.9-10.2c-0.9-0.7-2.2-0.6-2.9,0.2c-0.8,0.9-0.7,2.2,0.2,3C78.1,28.1,80.8,30.5,81.5,35.6z M90,37.7
		c0.1,1.1,1,1.8,2.1,1.8c0.1,0,0.2,0,0.3,0c1.1-0.2,2-1.2,1.8-2.4c-1.9-13.3-9.2-19.7-9.5-20c-0.9-0.8-2.2-0.6-3,0.2
		c-0.8,0.9-0.7,2.2,0.2,3C81.9,20.4,88.3,26.1,90,37.7z M20.7,43.1c-0.9-0.7-2.2-0.5-2.9,0.4C13.7,48.9,14,54,14.1,54.2
		c0.1,1.1,1,1.9,2.1,1.9c0.1,0,0.1,0,0.2,0c1.2-0.1,2-1.1,1.9-2.3c0,0-0.2-3.7,2.9-7.8C21.8,45.2,21.6,43.8,20.7,43.1z M16.2,35.7
		c-0.9-0.7-2.2-0.5-2.9,0.4C5.2,46.8,5.9,56.5,5.9,56.9C6,58,6.9,58.8,8,58.8c0.1,0,0.1,0,0.2,0c1.2-0.1,2-1.1,1.9-2.2
		c0-0.1-0.5-8.6,6.5-18C17.3,37.7,17.1,36.4,16.2,35.7z"/>
</g>
</svg>
