<?xml version="1.0" encoding="utf-8"?>
<!-- Svg Vector Icons : http://www.onlinewebfonts.com/icon -->
<!DOCTYPE svg PUBLIC "-//W3C//DTD SVG 1.1//EN" "http://www.w3.org/Graphics/SVG/1.1/DTD/svg11.dtd">
<svg version="1.1" xmlns="http://www.w3.org/2000/svg" xmlns:xlink="http://www.w3.org/1999/xlink" x="0px" y="0px" viewBox="0 0 1000 1000" enable-background="new 0 0 1000 1000" xml:space="preserve">
<metadata> Svg Vector Icons : http://www.onlinewebfonts.com/icon </metadata>
<g><path d="M500,10C227,10,10,227,10,500s217,490,490,490s490-217,490-490S773,10,500,10z M500,206c77,0,140,63,140,140c0,77-63,140-140,140c-77,0-140-63-140-140C360,269,423,206,500,206z M801,773c-77,77-182,133-301,133s-224-49-301-133c-21-21-21-56,0-77c77-84,182-140,301-140s224,56,301,140C822,717,822,752,801,773z"/></g>
</svg>