<svg xmlns="http://www.w3.org/2000/svg" viewBox="0 0 50 49.99"><defs><style>.cls-1{fill:#232f3e;}</style></defs><title>product-icon_Amazon-Cognito</title><g id="ICONS_-_EDIT" data-name="ICONS - EDIT"><path class="cls-1" d="M25,36H3.71A3.92,3.92,0,0,1,0,31.9V7.1A3.92,3.92,0,0,1,3.71,3H42.29A3.92,3.92,0,0,1,46,7.1L46,25H44V7.1A2,2,0,0,0,42.29,5H3.71A2,2,0,0,0,2,7.1V31.9A2,2,0,0,0,3.71,34H25Z"/><rect class="cls-1" x="4.02" y="20" width="10.98" height="2"/><rect class="cls-1" x="4.02" y="25" width="6.98" height="2"/><rect class="cls-1" x="13.02" y="25" width="2.98" height="2"/><path class="cls-1" d="M29,31H21a1,1,0,0,1-1-1V9a1,1,0,0,1,1-1H40a1,1,0,0,1,1,1V24H39V10H22l0,19h7Z"/><rect class="cls-1" x="1" y="13" width="20" height="2"/><rect class="cls-1" x="40" y="13" width="5" height="2"/><path class="cls-1" d="M39.39,48.1A10.11,10.11,0,0,1,34.77,29a10,10,0,0,1,5.83-1h0a10.11,10.11,0,0,1,6.46,16.61,10.32,10.32,0,0,1-3.36,2.57A10,10,0,0,1,39.39,48.1Zm0-18.22a8.11,8.11,0,1,0,3.47,15.45,8.31,8.31,0,0,0,2.71-2.06,8.12,8.12,0,0,0-5.19-13.33h0A8.22,8.22,0,0,0,39.37,29.88Z"/><path class="cls-1" d="M37.79,42.25h0a1,1,0,0,1-.7-.29l-3.23-3.22,1.42-1.42,2.51,2.52,5.71-5.71,1.41,1.42L38.5,42A1,1,0,0,1,37.79,42.25Z"/><path class="cls-1" d="M22.45,30h-2V28.75a9.71,9.71,0,0,1,7.4-9.46,1,1,0,0,1,.72.09,3.93,3.93,0,0,0,3.75,0,1,1,0,0,1,.72-.09,9.82,9.82,0,0,1,6,4.41l-1.72,1a7.83,7.83,0,0,0-4.41-3.42,5.93,5.93,0,0,1-4.93,0,7.74,7.74,0,0,0-5.53,7.43Z"/><path class="cls-1" d="M30.45,21.83a5.49,5.49,0,1,1,2.64-.67A5.54,5.54,0,0,1,30.45,21.83Zm0-8.91A3.48,3.48,0,0,0,27,16.38a3.44,3.44,0,0,0,1.8,3,3.57,3.57,0,0,0,3.39,0h0a3.43,3.43,0,0,0,1.81-3A3.48,3.48,0,0,0,30.45,12.92Z"/></g></svg>